<svg width="34" height="34" xmlns="http://www.w3.org/2000/svg"><g fill="none" fill-rule="evenodd"><circle stroke="#414142" stroke-width="2" cx="17" cy="17" r="16"/><path d="M24.312 12.936a3.291 3.291 0 0 0 1.443-1.816 6.57 6.57 0 0 1-2.084.796 3.282 3.282 0 0 0-5.592 2.993 9.317 9.317 0 0 1-6.765-3.428 3.28 3.28 0 0 0 1.016 4.382 3.269 3.269 0 0 1-1.487-.411v.041a3.284 3.284 0 0 0 2.632 3.218 3.292 3.292 0 0 1-1.482.056 3.285 3.285 0 0 0 3.066 2.28 6.584 6.584 0 0 1-4.859 1.358 9.287 9.287 0 0 0 5.03 1.475c6.037 0 9.338-5 9.338-9.338 0-.142-.003-.284-.009-.424a6.667 6.667 0 0 0 1.638-1.7 6.562 6.562 0 0 1-1.885.518z" fill="#414142"/></g></svg>