<svg width="34" height="34" xmlns="http://www.w3.org/2000/svg"><g fill="none" fill-rule="evenodd"><path d="M24.204 20.31c-.062-.03-2.384-1.202-2.797-1.354a1.577 1.577 0 0 0-.54-.122c-.314 0-.578.16-.783.474-.232.354-.934 1.194-1.151 1.446-.028.033-.067.072-.09.072-.02 0-.38-.152-.489-.2-2.491-1.108-4.382-3.773-4.641-4.223-.037-.064-.039-.094-.039-.094a.791.791 0 0 1 .136-.164c.127-.129.263-.298.396-.461.063-.077.125-.155.188-.228.192-.23.277-.407.377-.613l.052-.107c.242-.494.035-.91-.032-1.045-.054-.112-1.035-2.536-1.14-2.79-.25-.615-.581-.901-1.041-.901-.043 0 0 0-.18.008-.218.01-1.406.17-1.93.508-.558.36-1.5 1.506-1.5 3.522 0 1.815 1.124 3.528 1.607 4.18.012.015.034.05.066.097 1.848 2.765 4.152 4.814 6.488 5.77 2.25.92 3.314 1.026 3.92 1.026.254 0 .458-.02.637-.038l.114-.012c.777-.07 2.484-.976 2.873-2.081.306-.87.386-1.822.183-2.168-.14-.234-.38-.352-.684-.502" fill="#414142"/><path d="M17.001 33c-3.143 0-6.188-.915-8.805-2.646a.533.533 0 0 0-.455-.063l-5.346 1.713 1.726-5.133a.545.545 0 0 0-.075-.49A15.863 15.863 0 0 1 1 17C1 8.178 8.178 1 17.001 1 25.823 1 33 8.178 33 17c0 8.823-7.177 16-15.999 16z" stroke="#414142" stroke-width="2" stroke-linecap="round" stroke-linejoin="round"/></g></svg>